<svg width="14" height="14" viewBox="0 0 14 14" fill="none" xmlns="http://www.w3.org/2000/svg">
<path d="M4.99205 14H9.00768C9.91911 14 10.4073 13.3814 10.4073 12.3857V9.00634H13.0564C13.5834 9.00634 14 8.62915 14 8.05595C14 7.70161 13.85 7.43738 13.6095 7.16607L7.80382 0.46023C7.55638 0.166069 7.28951 1.76006e-08 7.00319 0C6.71021 0 6.45 0.166069 6.1959 0.46023L0.390455 7.16607C0.143296 7.45251 0 7.70161 0 8.05595C0 8.62947 0.416559 9.00634 0.95031 9.00634H3.59268V12.3857C3.59268 13.3814 4.08089 14 4.99232 14H4.99205ZM5.09619 12.8308C4.84875 12.8308 4.67963 12.6344 4.67963 12.3557V8.12386C4.67963 7.93526 4.62103 7.86736 4.46468 7.86736H1.46434C1.41852 7.86736 1.3927 7.84483 1.3927 7.80717C1.3927 7.77692 1.39908 7.75439 1.43158 7.71674L6.86628 1.456C6.88246 1.43193 6.90326 1.41256 6.92703 1.39943C6.95079 1.38631 6.97687 1.37978 7.00319 1.38037C7.04874 1.38037 7.08789 1.39549 7.13983 1.456L12.5745 7.71674C12.6006 7.75439 12.6137 7.77692 12.6137 7.80685C12.6137 7.84483 12.5876 7.86736 12.542 7.86736H9.53532C9.37897 7.86736 9.32065 7.93526 9.32065 8.12386V12.3557C9.32065 12.627 9.14486 12.8308 8.90409 12.8308H5.09619Z" fill="#EBEBEB"/>
</svg>
