<svg width="18" height="18" viewBox="0 0 18 18" fill="none" xmlns="http://www.w3.org/2000/svg">
<g clip-path="url(#clip0_831_15609)">
<path d="M3.54546 5.59091C3.93836 5.59091 4.62019 5.59091 5.59091 5.59091C5.59091 4.58749 5.59091 3.90566 5.59091 3.54546C5.59091 2.41578 4.67512 1.5 3.54546 1.5C2.41578 1.5 1.5 2.41578 1.5 3.54546C1.5 4.67512 2.41578 5.59091 3.54546 5.59091Z" stroke="white" stroke-width="1.5" stroke-linejoin="round"/>
<path d="M3.54546 12.4102H5.59091V14.4556C5.59091 15.5853 4.67512 16.5011 3.54546 16.5011C2.41578 16.5011 1.5 15.5853 1.5 14.4556C1.5 13.3259 2.41578 12.4102 3.54546 12.4102Z" stroke="white" stroke-width="1.5" stroke-linejoin="round"/>
<path d="M12.41 5.58984H5.5918V12.408H12.41V5.58984Z" stroke="white" stroke-width="1.5" stroke-linecap="round" stroke-linejoin="round"/>
<path d="M14.4537 5.59091H12.4082V3.54546C12.4082 2.41578 13.324 1.5 14.4537 1.5C15.5833 1.5 16.4991 2.41578 16.4991 3.54546C16.4991 4.67512 15.5833 5.59091 14.4537 5.59091Z" stroke="white" stroke-width="1.5" stroke-linejoin="round"/>
<path d="M14.4537 12.4102C15.5833 12.4102 16.4991 13.3259 16.4991 14.4556C16.4991 15.5853 15.5833 16.5011 14.4537 16.5011C13.324 16.5011 12.4082 15.5853 12.4082 14.4556V12.4102H14.4537Z" stroke="white" stroke-width="1.5" stroke-linejoin="round"/>
</g>
<defs>
<clipPath id="clip0_831_15609">
<rect width="18" height="18" fill="white"/>
</clipPath>
</defs>
</svg>
