<svg width="14" height="14" viewBox="0 0 14 14" fill="none" xmlns="http://www.w3.org/2000/svg">
<path fill-rule="evenodd" clip-rule="evenodd" d="M9.79339 5.61855H11.1954C12.7144 5.61855 13.9765 4.35431 14 2.80928C13.9978 2.06488 13.7016 1.35159 13.1762 0.825225C12.6507 0.298855 11.9386 0.00217882 11.1954 0C10.4523 0.00217882 9.7402 0.298855 9.21471 0.825225C8.68922 1.35159 8.39304 2.06488 8.39087 2.80928V4.21407H5.6326V2.83278C5.63043 2.0885 5.33433 1.37531 4.80898 0.848954C4.28363 0.322602 3.57171 0.0258522 2.82867 0.0235059C1.28558 0.0235059 0.0234665 1.28774 0 2.80928C0.00217517 3.55367 0.298354 4.26696 0.823841 4.79333C1.34933 5.3197 2.06142 5.61637 2.80457 5.61855H4.20709V8.38145H2.82803C2.08488 8.38363 1.3728 8.6803 0.847308 9.20667C0.32182 9.73304 0.0256417 10.4463 0.0234665 11.1907C0.0256417 11.9351 0.32182 12.6484 0.847308 13.1748C1.3728 13.7011 2.08488 13.9978 2.82803 14C4.34701 14 5.60913 12.7358 5.63323 11.1907V9.80975H8.39087V11.1907C8.39304 11.9351 8.68922 12.6484 9.21471 13.1748C9.7402 13.7011 10.4523 13.9978 11.1954 14C12.7144 14 13.9765 12.7358 14 11.1901C13.9978 10.4457 13.7016 9.73241 13.1762 9.20604C12.6507 8.67967 11.9386 8.38299 11.1954 8.38081H9.79339V5.61855ZM11.1948 4.21455H9.79315V4.21391V2.80928C9.79449 2.43721 9.94268 2.08078 10.2054 1.81775C10.4681 1.55472 10.824 1.40644 11.1954 1.40527C11.5669 1.40644 11.9228 1.55472 12.1855 1.81775C12.4482 2.08078 12.5964 2.43721 12.5977 2.80928C12.5967 3.18167 12.4486 3.53852 12.1857 3.80184C11.9228 4.06516 11.5666 4.21354 11.1948 4.21455ZM1.83776 1.84085C2.10049 1.57768 2.45648 1.42932 2.82803 1.42814L2.82867 1.42751C3.57579 1.42751 4.20685 2.05963 4.23032 2.83342V4.23742H2.82803C2.05681 4.23742 1.42575 3.6053 1.42575 2.83278C1.42692 2.46061 1.57504 2.10401 1.83776 1.84085ZM9.79315 11.2136V9.80959H11.1954C11.567 9.81077 11.923 9.95913 12.1857 10.2223C12.4484 10.4855 12.5965 10.8421 12.5977 11.2142C12.5965 11.5865 12.4483 11.9432 12.1855 12.2064C11.9226 12.4696 11.5665 12.6179 11.1948 12.6189C10.4242 12.6189 9.79315 11.9867 9.79315 11.2136ZM1.83821 10.2221C2.10082 9.95906 2.45665 9.81077 2.82803 9.80959H2.82867H4.23032V11.2142C4.22915 11.5864 4.08103 11.943 3.8183 12.2062C3.55558 12.4693 3.19958 12.6177 2.82803 12.6189C2.05681 12.6189 1.42638 11.9867 1.42638 11.2136C1.42755 10.8416 1.5756 10.4852 1.83821 10.2221ZM8.39111 8.40511H5.61001H5.60938V5.61871H8.39111V8.40511Z" fill="#EBEBEB"/>
</svg>
