<svg width="24" height="24" viewBox="0 0 24 24" fill="none" xmlns="http://www.w3.org/2000/svg">
<circle cx="12" cy="12" r="11.5" stroke="#D9D9D9"/>
<path d="M0 12C1.37766e-07 10.4241 0.31039 8.8637 0.913446 7.4078C1.5165 5.95189 2.40042 4.62902 3.51472 3.51472C4.62902 2.40041 5.95189 1.5165 7.4078 0.913444C8.86371 0.310388 10.4241 -5.82364e-07 12 0C13.5759 5.82365e-07 15.1363 0.31039 16.5922 0.913448C18.0481 1.5165 19.371 2.40042 20.4853 3.51472C21.5996 4.62903 22.4835 5.9519 23.0866 7.40781C23.6896 8.86371 24 10.4241 24 12L12 12L0 12Z" fill="#D9D9D9"/>
</svg>
